# xmcd
#
# Track frame offsets: 
#        187
#        3292
#        26455
#        44555
#        60125
#        77247
#        94312
#        95660
#        127467
#        148227
#        167232
#        186867
#        200455
#        218377
#
# Disc length: 3165 seconds
#
# Revision: 1
# Processed by: cddbd v1.5.2PL0 Copyright (c) Steve Scherf et al.
# Submitted via: ExactAudioCopy v0.99pb5
#
DISCID=c50c5b0e
DTITLE=Various Artist - BOOM! REGGAE HITS J-WAVE SELECTION
DYEAR=1994
DGENRE=Reggae
TTITLE0=J-WAVE JINGLE
TTITLE1=Courtney Pine (feat.Carroll Thompson) - I'm Still Waiting
TTITLE2=Chaka Demus and Pliers - Tease Me (Goldfinger Remix)
TTITLE3=Louchi Lou and Michie One - SHOUT (it out)
TTITLE4=Apache Indian - Boom Shack-A-Lak
TTITLE5=General Levy - HEAT
TTITLE6=J-WAVE JINGLE
TTITLE7=Bob Marly and The Wailers - Iron Lion Zion (12'' mix)
TTITLE8=Buju Banton - Make My Day (Troopa's Jeep Mix)
TTITLE9=ASWAD - Next To You (Tribal Jazz Mix)
TTITLE10=TAXI GANG (feat.SHINEHEAD) - RHYTHM KILLER
TTITLE11=Jimmy Cliff - Many Rivers To Cross
TTITLE12=David Morales and The Bard Yard Club (feat.PAPA SAN) - The Prog
TTITLE12=ram (Soul Assassins Mix)
TTITLE13=Buju Banton and Wayne Wonder - Searching
EXTD=YEAR: 1994
EXTT0=
EXTT1=
EXTT2=
EXTT3=
EXTT4=
EXTT5=
EXTT6=
EXTT7=
EXTT8=
EXTT9=
EXTT10=
EXTT11=
EXTT12=
EXTT13=
PLAYORDER=
